# xmcd
#
# Track frame offsets: 
#        150
#        32678
#        50590
#        72923
#        98633
#        123513
#        149473
#        164433
#        190978
#        211538
#        239073
#
# Disc length: 3555 seconds
#
# Revision: 1
# Processed by: cddbd v1.5.2PL0 Copyright (c) Steve Scherf et al.
# Submitted via: ExactAudioCopy v1.0b3
#
DISCID=9f0de10b
DTITLE=Barry Levenson - Heart to Hand
DYEAR=1999
DGENRE=Blues
TTITLE0=Cobra Days - Blue Tears
TTITLE1=Whole lotta Blues
TTITLE2=Blue Stew
TTITLE3=The Late Show
TTITLE4=Royal Albert
TTITLE5=Slippin' Down
TTITLE6=Earl's Ride
TTITLE7=Steel Life
TTITLE8=Wrong Side of the Blues
TTITLE9=West Side rain
TTITLE10=Crawford's Grill
EXTD=
EXTT0=
EXTT1=
EXTT2=
EXTT3=
EXTT4=
EXTT5=
EXTT6=
EXTT7=
EXTT8=
EXTT9=
EXTT10=
PLAYORDER=
